<svg xmlns="http://www.w3.org/2000/svg" xmlns:xlink="http://www.w3.org/1999/xlink" viewBox="0 0 283.79 319.07"><defs><style>.cls-1{fill:url(#linear-gradient);}.cls-2{fill:url(#linear-gradient-2);}.cls-3{fill:url(#linear-gradient-3);}.cls-4{fill:url(#linear-gradient-4);}</style><linearGradient id="linear-gradient" x1="0.25" y1="159.69" x2="283.96" y2="159.69" gradientTransform="translate(-0.12 -0.23) rotate(0.03)" gradientUnits="userSpaceOnUse"><stop offset="0" stop-color="#ff057c"/><stop offset="0" stop-color="#8d0b93"/><stop offset="1" stop-color="#321575"/></linearGradient><linearGradient id="linear-gradient-2" x1="62.48" y1="134.56" x2="116.12" y2="165.52" gradientTransform="translate(-0.12 -0.23) rotate(0.03)" gradientUnits="userSpaceOnUse"><stop offset="0" stop-color="#ff057c"/><stop offset="0" stop-color="#8d0b93"/><stop offset="0.43" stop-color="#5f1084"/><stop offset="0.8" stop-color="#3e1479"/><stop offset="1" stop-color="#321575"/></linearGradient><linearGradient id="linear-gradient-3" x1="168.88" y1="154.04" x2="222.51" y2="185" xlink:href="#linear-gradient-2"/><linearGradient id="linear-gradient-4" x1="133.57" y1="157.14" x2="149.61" y2="166.4" xlink:href="#linear-gradient-2"/></defs><g id="Layer_2" data-name="Layer 2"><g id="Layer_1-2" data-name="Layer 1"><path class="cls-1" d="M141.82,319.07A27.51,27.51,0,0,1,128,315.38L13.75,249.31A27.6,27.6,0,0,1,0,225.46l.07-132A27.63,27.63,0,0,1,13.85,69.61L128.22,3.67a27.62,27.62,0,0,1,27.53,0L270,69.76A27.57,27.57,0,0,1,283.79,93.6l-.07,132a27.61,27.61,0,0,1-13.78,23.83L155.57,315.4A27.56,27.56,0,0,1,141.82,319.07ZM142,32.17a10.41,10.41,0,0,0-5.21,1.39L35.44,92a10.46,10.46,0,0,0-5.21,9l-.07,116.94a10.43,10.43,0,0,0,5.21,9L136.61,285.5a10.47,10.47,0,0,0,10.43,0l101.31-58.42a10.44,10.44,0,0,0,5.21-9l.07-116.95a10.45,10.45,0,0,0-5.21-9L147.18,33.56A10.41,10.41,0,0,0,142,32.17Z"/><path class="cls-2" d="M140.37,111.82,114.7,162.28a5.71,5.71,0,0,1-4.71,3.38h0c-5.28.2-8.53-7.25-5.58-12.81l16.67-31.3c1-1.9-.06-4.45-1.87-4.46H92.45a15.39,15.39,0,0,0-5.44,1,6.49,6.49,0,0,0-3.42,3.15A15.62,15.62,0,0,0,82.28,127q-.27,4.38-1.37,14.66l-.25,2.89q-1,9.94-8.46,13.9c3.6,2.15,5.41,6.25,5.4,12.31,0,.72,0,1.93-.17,3.64l-.76,6.64q-1,9.4-1.19,11.77a17.84,17.84,0,0,0-.09,2q0,4.4,2,6.1t7.27,1.72a4.84,4.84,0,0,1,3.8,1.61,5.66,5.66,0,0,1,1.43,3.95,6,6,0,0,1-2.11,5c-1.41,1.1-3.81,1.66-7.19,1.65q-8.45,0-12.46-5t-4-14.24a43.3,43.3,0,0,1,.17-4.39c.17-1.92.35-3.72.55-5.4s.36-3.23.47-4.65l.77-7.71a16.47,16.47,0,0,0,.08-1.82c0-2.42-.6-4.19-1.81-5.29s-3.12-1.66-5.71-1.67a3.76,3.76,0,0,1-3.46-2.08,8.41,8.41,0,0,1-.93-5q.6-5.67,5.16-5.67t7-2.08c1.58-1.39,2.56-3.84,3-7.33q.09-.54,1.27-12.74l.52-5.67q1-9.52,6-14.23t13.06-4.7a1,1,0,0,1,.29,0l39.45,0h7.57C140.2,105.24,141.81,109,140.37,111.82Z"/><path class="cls-3" d="M144.21,207.43,169.88,157a5.69,5.69,0,0,1,4.7-3.37h0c5.29-.21,8.54,7.25,5.58,12.8L163.5,197.7c-1,1.9.06,4.45,1.86,4.45l26.76,0a15.35,15.35,0,0,0,5.44-1A6.45,6.45,0,0,0,201,198a15.65,15.65,0,0,0,1.32-5.78q.25-4.38,1.36-14.66l.25-2.89q1-9.94,8.46-13.9-5.4-3.22-5.4-12.31c0-.72.06-1.93.17-3.64l.77-6.64q1-9.42,1.19-11.77c.05-.5.08-1.17.08-2q0-4.4-2-6.1c-1.35-1.14-3.78-1.72-7.27-1.72a4.81,4.81,0,0,1-3.8-1.61,5.7,5.7,0,0,1-1.44-4,5.93,5.93,0,0,1,2.12-5c1.41-1.1,3.8-1.66,7.18-1.65q8.46,0,12.47,5t4,14.24a40.18,40.18,0,0,1-.17,4.38c-.17,1.93-.35,3.73-.55,5.41s-.35,3.22-.47,4.65l-.76,7.71a14,14,0,0,0-.09,1.82c0,2.42.61,4.19,1.82,5.29s3.11,1.66,5.7,1.66a3.8,3.8,0,0,1,3.47,2.09,8.47,8.47,0,0,1,.92,5q-.58,5.67-5.16,5.67t-7,2.08q-2.37,2.08-3,7.33-.09.54-1.28,12.73l-.51,5.68q-1,9.51-6,14.23t-13.06,4.7a1.35,1.35,0,0,1-.28,0l-39.46,0H147C144.37,214,142.76,210.27,144.21,207.43Z"/><path class="cls-4" d="M150.9,126.66l-32,64.33a6.53,6.53,0,0,0,4.41,9.18h0a7.38,7.38,0,0,0,8.59-3.61l32-64.33a6.54,6.54,0,0,0-4.4-9.19h0A7.41,7.41,0,0,0,150.9,126.66Z"/></g></g></svg>