<svg version="1.2" xmlns="http://www.w3.org/2000/svg" viewBox="0 0 1080 1080" width="1080" height="1080">
	<title>logo</title>
	<defs>
		<linearGradient id="g1" x2="1" gradientUnits="userSpaceOnUse" gradientTransform="matrix(-1807.191,1685.233,-1470.826,-1577.268,2435.393,-281.016)">
			<stop offset="0" stop-color="#0a00b2"/>
			<stop offset=".51" stop-color="#ff0000"/>
			<stop offset=".74" stop-color="#ff6f00"/>
			<stop offset="1" stop-color="#ffff00"/>
		</linearGradient>
	</defs>
	<style>
		.s0 { fill: url(#g1) } 
	</style>
	<path id="Shape 1" class="s0" d="m572.3 460.3c-34.2-27.7-39.4-77.8-11.7-112 27.7-34.2 77.8-39.5 112-11.8 102.7 83.2 118.5 233.4 35.3 336.1-83.2 102.7-233.4 118.5-336.1 35.3-171.1-138.6-197.4-389-58.8-560.2 138.7-171.1 389-197.4 560.2-58.7 239.6 194 276.4 544.6 82.3 784.2-194.1 239.6-544.7 276.4-784.3 82.3-308-249.6-139.3-317.9 100.3-123.8 171.2 138.6 421.5 112.3 560.2-58.8 138.6-171.1 112.3-421.5-58.8-560.2-102.7-83.1-252.9-67.4-336.1 35.3-83.2 102.7-67.4 252.9 35.3 336.1 34.2 27.7 84.3 22.5 112-11.8 27.7-34.2 22.5-84.3-11.8-112z"/>
</svg>